<svg id="Capa_1" enable-background="new 0 0 512.035 512.035" height="512" viewBox="0 0 512.035 512.035" width="512" xmlns="http://www.w3.org/2000/svg"><g><g><circle cx="256.934" cy="256.018" fill="#ee6161" r="43.583"/><path d="m248.837 256.018c0-17.749 10.631-33.016 25.855-39.813-5.421-2.42-11.437-3.77-17.758-3.77-24.07 0-43.583 19.513-43.583 43.583s19.513 43.583 43.583 43.583c6.321 0 12.352-1.361 17.773-3.782-15.224-6.797-25.87-22.052-25.87-39.801z" fill="#e94444"/><circle cx="468.265" cy="192.27" fill="#fedf30" r="18.882"/><circle cx="218.187" cy="472.535" fill="#fec165" r="18.882"/><circle cx="43.77" cy="192.27" fill="#62dbfb" r="18.882"/></g><g><path d="m212.662 230.544c-2.068 3.589-.836 8.175 2.753 10.243 3.586 2.069 8.174.836 10.243-2.752 6.436-11.165 18.42-18.101 31.276-18.101 19.896 0 36.083 16.187 36.083 36.083s-16.187 36.083-36.083 36.083c-16.85 0-31.293-11.446-35.125-27.835-.943-4.034-4.979-6.54-9.01-5.596-4.033.943-6.539 4.977-5.596 9.01 5.426 23.211 25.876 39.421 49.73 39.421 28.167 0 51.083-22.916 51.083-51.083s-22.916-51.083-51.083-51.083c-18.201.001-35.165 9.814-44.271 25.61z"/><path d="m444.539 281.598c-5.486-5.427-11.378-10.876-17.635-16.321.165-3.066.255-6.153.255-9.26 0-2.443-.064-4.87-.166-7.288 12.237-10.662 23.01-21.304 32.06-31.741 2.87 1.073 5.974 1.664 9.214 1.664 14.547 0 26.382-11.835 26.382-26.382 0-7.563-3.204-14.387-8.319-19.202 4.03-12.456 3.706-23.434-.982-32.693-7.059-13.942-22.853-22.121-46.941-24.309-4.138-.373-7.772 2.666-8.148 6.791-.374 4.125 2.666 7.773 6.791 8.147 12.788 1.161 29.226 4.905 34.916 16.146 2.589 5.113 2.825 11.528.739 19.118-1.444-.246-2.924-.381-4.437-.381-14.547 0-26.382 11.834-26.382 26.381 0 5.856 1.921 11.271 5.162 15.654-6.367 7.264-13.691 14.692-21.854 22.196-5.607-36.576-22.897-69.354-47.929-94.394 9.985-1.954 19.539-3.391 28.549-4.264 4.123-.399 7.141-4.065 6.741-8.188-.4-4.124-4.07-7.141-8.188-6.742-12.724 1.233-26.459 3.529-40.938 6.793-11.037-8.876-23.194-16.411-36.232-22.343-3.64-14.425-7.811-27.743-12.476-39.671-1.508-3.857-5.86-5.762-9.716-4.253-3.857 1.509-5.762 5.859-4.254 9.716 3.305 8.45 6.35 17.645 9.128 27.461-16.672-5.469-34.465-8.44-52.942-8.44-18.473 0-36.263 2.969-52.932 8.436 1.126-3.976 2.292-7.866 3.508-11.643 13.619-42.32 32.096-67.586 49.421-67.586 12.622 0 23.406 13.022 30.23 23.947 2.194 3.514 6.821 4.582 10.335 2.387 3.513-2.194 4.582-6.821 2.388-10.334-12.85-20.57-27.302-31-42.953-31-13.266 0-25.749 7.566-37.104 22.488-10.042 13.195-18.99 31.869-26.598 55.503-2.354 7.311-4.543 14.992-6.566 22.994-13.799 6.279-26.617 14.347-38.159 23.907-7.402-1.628-14.627-3.011-21.63-4.122-24.521-3.888-45.224-4.34-61.532-1.341-18.442 3.391-30.831 11.111-36.823 22.946-4.316 8.524-4.918 18.533-1.83 29.81-5.687 4.843-9.304 12.047-9.304 20.084 0 14.547 11.835 26.382 26.382 26.382 3.273 0 6.406-.604 9.3-1.698 9.29 10.941 20.662 22.232 33.737 33.594-.058 1.817-.097 3.638-.097 5.469 0 2.459.064 4.902.168 7.336-6.225 5.42-12.089 10.842-17.549 16.245-17.649 17.463-30.268 33.881-37.505 48.8-8.184 16.871-9.295 31.427-3.303 43.262s18.381 19.555 36.823 22.946c7.094 1.304 15.016 1.956 23.726 1.956 11.313 0 23.951-1.1 37.807-3.297 7.615-1.207 15.487-2.73 23.572-4.548 11.021 8.862 23.159 16.387 36.176 22.314 3.912 15.454 8.445 29.637 13.552 42.252-5.146 4.817-8.372 11.664-8.372 19.252 0 14.547 11.835 26.382 26.382 26.382 2.983 0 5.849-.505 8.526-1.422 9.47 9.637 19.614 14.54 30.221 14.54 13.266 0 25.749-7.566 37.105-22.488 10.041-13.195 18.989-31.869 26.597-55.503 2.354-7.311 4.543-14.992 6.566-22.994 12.267-5.582 23.757-12.58 34.266-20.781 8.769 2.015 17.297 3.692 25.522 4.996 13.856 2.197 26.493 3.297 37.807 3.297 8.708 0 16.633-.651 23.726-1.956 18.442-3.391 30.831-11.111 36.823-22.946s4.881-26.391-3.303-43.262c-7.237-14.918-19.855-31.336-37.504-48.799zm23.726-100.709c6.276 0 11.382 5.105 11.382 11.381s-5.105 11.382-11.382 11.382-11.382-5.106-11.382-11.382 5.106-11.381 11.382-11.381zm-110.534 193.071c-7.104-1.759-14.363-3.741-21.755-5.943 3.017-18.786 5.255-38.682 6.668-59.302 22.826-13.575 43.87-27.768 62.504-42.119 2.112 1.71 4.179 3.422 6.218 5.135-4.117 40.779-24.09 76.942-53.635 102.229zm-255.395-104.09c1.309-1.1 2.634-2.2 3.973-3.3 19.317 15.051 41.288 29.991 65.045 44.164 1.366 19.263 3.45 37.823 6.205 55.384-7.9 2.348-15.646 4.441-23.215 6.281-29-25.593-48.391-61.825-52.008-102.529zm50.243-128.666c8.04 1.919 16.291 4.135 24.711 6.633-2.717 17.662-4.751 36.27-6.068 55.505-23.724 14.125-45.627 28.983-64.945 44.053-1.384-1.134-2.755-2.267-4.104-3.4 3.126-40.618 21.953-76.907 50.406-102.791zm137.099 52.138c13.285 6.726 26.188 13.736 38.611 20.952.75 13.653 1.137 27.601 1.137 41.724 0 14.834-.423 29.459-1.243 43.75-12.42 7.23-25.298 14.239-38.505 20.926-11.683 5.915-23.368 11.46-34.974 16.617-10.137-4.585-20.327-9.46-30.514-14.617-13.163-6.664-25.984-13.636-38.34-20.82-.923-15.005-1.408-30.35-1.408-45.855 0-14.847.424-29.484 1.245-43.787 12.39-7.193 25.257-14.182 38.503-20.889 10.18-5.154 20.373-10.032 30.516-14.617 11.605 5.157 23.29 10.702 34.972 16.616zm-16.47-24.676c16.531-6.929 32.82-13.021 48.592-18.194 2.24 14.651 4.01 30.005 5.279 45.855-9.954-5.607-20.175-11.076-30.625-16.367-7.752-3.925-15.508-7.69-23.246-11.294zm70.537 54.865c17.635 10.847 34.126 22.07 49.108 33.434-14.989 11.357-31.524 22.633-49.185 33.52.499-11.333.758-22.84.758-34.468 0-10.943-.234-21.787-.681-32.486zm-173.461 69.021c-18.752-11.548-36.219-23.52-51.908-35.564 15.702-12.071 33.116-24.001 51.826-35.505-.501 11.355-.761 22.884-.761 34.535.001 12.357.287 24.557.843 36.534zm47.131-114.593c-10.395 5.263-20.564 10.703-30.468 16.279 1.195-14.426 2.807-28.434 4.822-41.88 14.446 4.725 29.305 10.223 44.385 16.426-6.246 2.955-12.496 6.015-18.739 9.175zm-30.237 141.943c9.846 5.551 19.938 10.96 30.236 16.174 6.248 3.163 12.498 6.219 18.74 9.175-14.95 6.15-29.684 11.608-44.014 16.306-2.045-13.365-3.713-27.304-4.962-41.655zm67.47 33.811c21.891 9.666 43.511 17.965 64.316 24.707-1.389 7.485-2.909 14.756-4.558 21.788-17.784 7.114-37.178 11.034-57.472 11.034-20.269 0-39.641-3.911-57.407-11.008-1.776-7.617-3.408-15.54-4.89-23.728 19.437-6.289 39.589-13.938 60.011-22.793zm18.546-8.337c7.743-3.606 15.504-7.374 23.26-11.3 10.416-5.273 20.58-10.712 30.467-16.273-1.308 15.793-3.119 31.083-5.407 45.685-15.705-5.156-31.894-11.221-48.32-18.112zm138.333-103.276c-2.118 1.776-4.269 3.553-6.47 5.331-18.658-14.371-39.641-28.527-62.286-42.016-1.364-20.666-3.558-40.625-6.516-59.465 7.928-2.361 15.697-4.474 23.266-6.318 28.986 25.58 48.374 61.789 52.006 102.468zm-66.913-114.099c-3.597.973-7.228 1.995-10.894 3.074-.696-3.77-1.426-7.482-2.186-11.142 4.501 2.477 8.865 5.172 13.08 8.068zm-87.68-27.207c20.296 0 39.691 3.921 57.476 11.036 1.782 7.615 3.413 15.532 4.894 23.704-20.887 6.758-42.639 15.085-64.647 24.792-20.572-8.92-40.869-16.617-60.439-22.932 1.569-8.821 3.319-17.358 5.244-25.566 17.784-7.113 37.178-11.034 57.472-11.034zm-74.62 19.15c-.887 4.264-1.732 8.597-2.532 13.004-4.24-1.242-8.438-2.415-12.59-3.516 4.842-3.443 9.892-6.609 15.122-9.488zm-149.926 72.326c0-6.276 5.105-11.381 11.382-11.381s11.382 5.105 11.382 11.381-5.105 11.382-11.382 11.382-11.382-5.106-11.382-11.382zm32.644 15.594c3.215-4.372 5.12-9.764 5.12-15.594 0-14.547-11.835-26.381-26.382-26.381-1.066 0-2.115.071-3.148.194-1.473-6.65-1.048-12.327 1.283-16.932 7.826-15.457 38.712-20.53 82.623-13.565 3.421.542 6.902 1.158 10.428 1.831-24.539 25.23-41.337 58.018-46.531 94.497-8.832-8.14-16.678-16.193-23.393-24.05zm59.496 170.586c-43.909 6.964-74.798 1.892-82.623-13.565-7.826-15.458 6.37-43.354 37.975-74.624 2.817-2.787 5.757-5.582 8.793-8.379 5.601 36.585 22.891 69.373 47.926 94.419-4.09.8-8.12 1.522-12.071 2.149zm44.744 5.597c3.575-.965 7.183-1.981 10.822-3.049.693 3.746 1.419 7.433 2.175 11.069-4.471-2.464-8.807-5.143-12.997-8.02zm37.533 88.488c0-6.276 5.105-11.382 11.382-11.382s11.382 5.106 11.382 11.382-5.105 11.382-11.382 11.382-11.382-5.106-11.382-11.382zm99.553-43.087c-13.622 42.321-32.099 67.587-49.424 67.587-5.885 0-11.873-2.834-17.859-8.413 3.44-4.456 5.494-10.035 5.494-16.087 0-14.547-11.835-26.382-26.382-26.382-1.549 0-3.064.142-4.54.399-3.482-8.752-6.695-18.373-9.614-28.737 16.66 5.461 34.439 8.426 52.901 8.426 18.473 0 36.263-2.969 52.932-8.436-1.126 3.976-2.292 7.866-3.508 11.643zm25.196-37.356c.631-3.033 1.239-6.103 1.826-9.209 3.055.899 6.089 1.764 9.099 2.591-3.543 2.349-7.186 4.559-10.925 6.618zm140.409-25.208c-7.826 15.457-38.715 20.529-82.623 13.565-4.501-.714-9.097-1.541-13.779-2.48 25.549-24.859 43.337-57.649 49.347-94.354 3.138 2.886 6.174 5.769 9.08 8.645 31.605 31.27 45.802 59.167 37.975 74.624z"/></g></g></svg>