<svg width="50" height="50" viewBox="0 0 50 50" fill="none" xmlns="http://www.w3.org/2000/svg">
<path d="M39.5833 19.0986C39.5833 17.2601 39.206 15.4396 38.4733 13.7411C37.7404 12.0425 36.6662 10.4992 35.3118 9.19913C33.9577 7.89911 32.3502 6.86787 30.5808 6.16431C28.8114 5.46075 26.9152 5.09863 25 5.09863C23.0848 5.09863 21.1885 5.46075 19.4192 6.16431C17.6498 6.86787 16.0422 7.89911 14.688 9.19913C13.3338 10.4992 12.2596 12.0425 11.5267 13.7411C10.7938 15.4396 10.4166 17.2601 10.4166 19.0986C10.4166 21.8726 11.2708 24.4526 12.7187 26.6286H12.702C17.6187 34.0186 25 45.0986 25 45.0986L37.2979 26.6286H37.2833C38.7841 24.3814 39.5823 21.7682 39.5833 19.0986ZM25 25.0986C23.3425 25.0986 21.7527 24.4664 20.5805 23.3412C19.4084 22.216 18.75 20.69 18.75 19.0986C18.75 17.5073 19.4084 15.9812 20.5805 14.856C21.7527 13.7308 23.3425 13.0986 25 13.0986C26.6575 13.0986 28.2473 13.7308 29.4193 14.856C30.5914 15.9812 31.25 17.5073 31.25 19.0986C31.25 20.69 30.5914 22.216 29.4193 23.3412C28.2473 24.4664 26.6575 25.0986 25 25.0986Z" fill="#F95E53"/>
</svg>
