<svg width="50" height="50" viewBox="0 0 50 50" fill="none" xmlns="http://www.w3.org/2000/svg">
<path d="M41 7.09863H9C7.93914 7.09863 6.92172 7.52005 6.17158 8.27019C5.42142 9.02035 5 10.0378 5 11.0986V19.0986C5 20.1594 5.42142 21.177 6.17158 21.927C6.92172 22.6772 7.93914 23.0986 9 23.0986H41C42.0608 23.0986 43.0782 22.6772 43.8284 21.927C44.5786 21.177 45 20.1594 45 19.0986V11.0986C45 10.0378 44.5786 9.02035 43.8284 8.27019C43.0782 7.52005 42.0608 7.09863 41 7.09863ZM31 15.0986C31 16.2032 30.1046 17.0986 29 17.0986C27.8954 17.0986 27 16.2032 27 15.0986C27 13.9941 27.8954 13.0986 29 13.0986C30.1046 13.0986 31 13.9941 31 15.0986ZM39 15.0986C39 16.2032 38.1046 17.0986 37 17.0986C35.8954 17.0986 35 16.2032 35 15.0986C35 13.9941 35.8954 13.0986 37 13.0986C38.1046 13.0986 39 13.9941 39 15.0986ZM41 27.0986H9C7.93914 27.0986 6.92172 27.52 6.17158 28.2702C5.42142 29.0204 5 30.0378 5 31.0986V39.0986C5 40.1596 5.42142 41.177 6.17158 41.927C6.92172 42.6772 7.93914 43.0986 9 43.0986H41C42.0608 43.0986 43.0782 42.6772 43.8284 41.927C44.5786 41.177 45 40.1596 45 39.0986V31.0986C45 30.0378 44.5786 29.0204 43.8284 28.2702C43.0782 27.52 42.0608 27.0986 41 27.0986ZM31 35.0986C31 36.2032 30.1046 37.0986 29 37.0986C27.8954 37.0986 27 36.2032 27 35.0986C27 33.994 27.8954 33.0986 29 33.0986C30.1046 33.0986 31 33.994 31 35.0986ZM39 35.0986C39 36.2032 38.1046 37.0986 37 37.0986C35.8954 37.0986 35 36.2032 35 35.0986C35 33.994 35.8954 33.0986 37 33.0986C38.1046 33.0986 39 33.994 39 35.0986Z" fill="#F95E53"/>
</svg>
