<svg width="32" height="37" viewBox="0 0 32 37" fill="none" xmlns="http://www.w3.org/2000/svg">
<path fill-rule="evenodd" clip-rule="evenodd" d="M15.9999 14.6986C17.9095 14.6986 19.7409 13.94 21.0911 12.5898C22.4413 11.2395 23.1999 9.40814 23.1999 7.49858C23.1999 5.58902 22.4413 3.75768 21.0911 2.40742C19.7409 1.05716 17.9095 0.298584 15.9999 0.298584C14.0903 0.298584 12.2591 1.05716 10.9088 2.40742C9.55849 3.75768 8.79993 5.58902 8.79993 7.49858C8.79993 9.40814 9.55849 11.2395 10.9088 12.5898C12.2591 13.94 14.0903 14.6986 15.9999 14.6986ZM5.79723 36.2986C2.15363 36.2986 -0.915589 33.2358 0.478752 29.8694C1.32303 27.8312 2.56051 25.9792 4.12053 24.4192C5.68055 22.8592 7.53257 21.6216 9.57085 20.7774C11.6091 19.9332 13.7937 19.4986 15.9999 19.4986C18.2061 19.4986 20.3907 19.9332 22.4289 20.7774C24.4673 21.6216 26.3193 22.8592 27.8793 24.4192C29.4393 25.9792 30.6769 27.8312 31.5211 29.8694C32.9155 33.2358 29.8463 36.2986 26.2027 36.2986H5.79723Z" fill="#F95E53"/>
</svg>
